<svg xmlns="http://www.w3.org/2000/svg" xmlns:xlink="http://www.w3.org/1999/xlink" viewBox="0 0 295.3 411.07"><defs><style>.cls-1{fill:none;}.cls-2{fill:#fff;}.cls-3{fill:#3b434f;}.cls-4{fill:#edf1f1;}.cls-5{fill:#3b444f;}.cls-6{clip-path:url(#clip-path);}.cls-7{clip-path:url(#clip-path-3);}</style><clipPath id="clip-path"><rect class="cls-1" x="94.09" y="148.65" width="12.41" height="9.22"/></clipPath><clipPath id="clip-path-3"><rect class="cls-1" x="187.96" y="147.63" width="12.41" height="9.22"/></clipPath></defs><title>1Avatar</title><g id="Layer_2" data-name="Layer 2"><g id="Layer_1-2" data-name="Layer 1"><path id="body-bg-flat" class="cls-2" d="M1.8,408.44S-8.5,318.13,80.24,308.05h38V290.56S144.93,302,172,291.84l.85,16.21H217.2s77.27,7.71,72.6,100.39Z"/><path id="neck_copy_5" data-name="neck copy 5" class="cls-3" d="M122.48,288.59V314.9a24.75,24.75,0,0,0,49.49,0V289.13q2.15-.66,4.27-1.42v27.38a29.23,29.23,0,1,1-58.45,0V286.89Q120.11,287.81,122.48,288.59Z"/><path id="Rounded_Rectangle_14" data-name="Rounded Rectangle 14" class="cls-3" d="M117.58,339.2a2.77,2.77,0,0,1,2.77,2.77v41.81a2.77,2.77,0,1,1-5.55,0V342A2.77,2.77,0,0,1,117.58,339.2Z"/><path id="Rounded_Rectangle_15" data-name="Rounded Rectangle 15" class="cls-3" d="M175.82,338.77a3,3,0,0,1,3,3v26a3,3,0,1,1-6,0v-26A3,3,0,0,1,175.82,338.77Z"/><path id="Rounded_Rectangle_16" data-name="Rounded Rectangle 16" class="cls-3" d="M117.58,383.57a1.49,1.49,0,0,1,1.49,1.49v10.67a1.49,1.49,0,0,1-3,0V385.07A1.49,1.49,0,0,1,117.58,383.57Z"/><path id="Rounded_Rectangle_16_copy" data-name="Rounded Rectangle 16 copy" class="cls-3" d="M176,367.79a1.49,1.49,0,0,1,1.49,1.49v10.67a1.49,1.49,0,1,1-3,0V369.28A1.49,1.49,0,0,1,176,367.79Z"/><path id="_2_copy_5" data-name="2 copy 5" class="cls-2" d="M147,20.91c53.08,0,95,49.6,93.61,109.2l-1.45,63.34C237.9,249.59,196.65,294,147,294S56.14,249.59,54.86,193.45L53.41,130.1C52,70.51,93.94,20.91,147,20.91Z"/><path id="_2_line" data-name="2 line" class="cls-3" d="M244.89,128.14l-1.52,65.91C242,252.48,198.81,298.67,146.8,298.67S51.58,252.48,50.23,194.06l-1.52-65.91c-1.43-62,42.47-113.63,98.09-113.63S246.32,66.12,244.89,128.14ZM146.59,21.33c-52.35,0-93.67,49.21-92.33,108.35l1.43,62.85c1.27,55.71,42,99.74,90.9,99.74s89.64-44,90.9-99.74l1.43-62.85C240.27,70.55,198.94,21.33,146.59,21.33Z"/><path id="usta" class="cls-3" d="M192.88,231.77c-7.76,6.73-25.27,13.14-45.65,13.14s-37.9-6.41-45.65-13.14c0,0-.79-2.18.37-3.35a3.94,3.94,0,0,1,3-.93c7.75,6.74,21.85,12.3,42.24,12.3s34.49-5.56,42.24-12.3c0,0,1.9-.7,2.82.22A3.6,3.6,0,0,1,192.88,231.77Z"/><path id="_-" data-name="-" class="cls-3" d="M133.15,255.15h27.31v4.27H133.15Z"/><path id="Shape_11_copy" data-name="Shape 11 copy" class="cls-2" d="M48.61,137.75a10.35,10.35,0,0,0-3-1.44,14.11,14.11,0,0,0-3.58-.62c-.35,0-.7,0-1.07,0s-.74,0-1.12.08a13.68,13.68,0,0,0-2.33.45,12.52,12.52,0,0,0-8.25,7.65,25.66,25.66,0,0,0-1.74,8.71q-.06,1.34,0,2.82t.15,3.1c.16,2.16.46,4.52.9,7.09a52.74,52.74,0,0,0,2.37,16.7c2.61,8.73,8.89,19.46,20.47,22.52C50,182.63,50,160,48.61,137.75Z"/><path id="Shape_3" data-name="Shape 3" class="cls-3" d="M49.93,138.65s-20.18-6.25-19.47,14.49c0,0,3,30.08,4.31,32.85,0,0,7.92,17.51,21,18.29h0l.16,5.64s-23-2.95-27.42-29.43L25,156.42s-2.72-31.84,23.67-23.75h0l1.26,6"/><path id="Shape_4" data-name="Shape 4" class="cls-3" d="M43.27,180.43a4.35,4.35,0,0,1-2.1.85,4.28,4.28,0,0,1-2.09-.85l-2.08-21s2.87-10.33,15.06-4.87l.29,6s-10.7-3.79-10.47.93C42.09,166.06,43.27,180.43,43.27,180.43Z"/><path id="Shape_11_copy_1" data-name="Shape 11 copy_1" class="cls-2" d="M244.62,137.8a10.42,10.42,0,0,1,3-1.44,14.24,14.24,0,0,1,3.59-.62c.35,0,.7,0,1.07,0s.74,0,1.12.08a13.8,13.8,0,0,1,2.34.45A12.55,12.55,0,0,1,264,143.9a25.53,25.53,0,0,1,1.75,8.7q.06,1.34,0,2.82t-.15,3.1c-.16,2.16-.46,4.52-.9,7.09a52.46,52.46,0,0,1-2.38,16.69c-2.62,8.73-8.92,19.45-20.56,22.51,1.34-22.16,1.38-44.74,2.78-67Z"/><path id="Shape_3_1" data-name="Shape 3_1" class="cls-3" d="M243.29,138.7s20.26-6.25,19.55,14.48c0,0-3,30.06-4.33,32.83,0,0-8,17.5-21.09,18.28h0l-.16,5.64s23.09-2.94,27.54-29.41l3.52-24s2.73-31.82-23.77-23.73h0l-1.26,6"/><path id="Shape_4_1" data-name="Shape 4_1" class="cls-3" d="M250,180.45a4.38,4.38,0,0,0,2.11.85,4.31,4.31,0,0,0,2.09-.85l2.09-21s-2.89-10.33-15.13-4.87l-.29,6s10.74-3.79,10.52.93C251.16,166.09,250,180.45,250,180.45Z"/><path id="new_vector_shape_done" data-name="new vector shape done" class="cls-3" d="M154.7,178.77h1.49c3.09,4.19,4.34,10.64,6,16.21a12.34,12.34,0,0,1-.43,6c-1.62,4.48-6.7,4.4-10.88,6.4-1.12.54-2,1.47-3.41,1.71-.95-.84-2.09-1-2.56-2.35-1.15-1.59.33-2.58,1.49-3.2,2.11-1.13,8.61-2.24,9.39-4.27,1-1.1.32-4.39,0-5.55a65,65,0,0,0-2.35-8.11c-.75-1.77-2.06-3.65-1.28-5.76A11.21,11.21,0,0,0,154.7,178.77Z"/><path id="Ellipse_3" data-name="Ellipse 3" class="cls-4" d="M198.43,174.08a10.67,10.67,0,1,1-10.67,10.67A10.67,10.67,0,0,1,198.43,174.08Z"/><path id="Ellipse_3_copy" data-name="Ellipse 3 copy" class="cls-4" d="M95.18,174.08a10.67,10.67,0,1,1-10.67,10.67A10.67,10.67,0,0,1,95.18,174.08Z"/><path id="glasses" class="cls-5" d="M239.74,133.32c-.58,4.93-1.08,11-2.15,16.36-3.19,16.13-17,31.07-40.71,32.77s-43.8-10.21-45-26.61c-.2-2.78-.74-5.9-1.15-8.93a10.34,10.34,0,0,0-10.35,0c-.42,3.1-1,6.3-1.18,9.15-1.18,16.45-21.39,28.4-45.13,26.7S56.46,166,53.26,149.86c-1.07-5.41-1.58-11.46-2.16-16.41l-3.49-.25.49-6.81.85.06L70.54,128l18.22,1.31L107,130.63l28.44,2a5.45,5.45,0,0,1,4.11,2.34,13.92,13.92,0,0,0,11.9,0,5.4,5.4,0,0,1,4.19-2.49l28.35-2,18.2-1.31,18.17-1.31,21.52-1.55.85-.06.49,6.79Zm-111.92,7.36-55.73-4c-7.29-.63-9.87,7.56-10.32,13.81-.95,13.16,13.72,24.94,32.76,26.31s35.24-8.19,36.19-21.35C131.16,149.19,133.2,145.34,127.82,140.68Zm101.29,9.61c-.45-6.22-3-14.39-10.29-13.76l-55.56,4c-5.36,4.64-3.33,8.49-2.88,14.71.94,13.12,17.09,22.65,36.07,21.28S230.05,163.4,229.11,150.29Z"/><path id="Shape_7" data-name="Shape 7" class="cls-3" d="M53.82,165.55s11.87-52,22.2-66.22S95.29,81.7,99.92,81.27s41.17,10.36,91.36-2c0,0,19.79-.79,28.17,19.06,0,0,17.68,31.64,20.49,63.21h3.42s7.24-55.34,4.27-88.29-46.1-49.16-46.1-49.16l9.39-7S189,10.28,180.18,14L187,0s-44.25.09-69.16,20.07l.85-10S30.92,23.5,49.55,163.54Z"/><g id="Rounded_Rectangle_9" data-name="Rounded Rectangle 9"><g class="cls-6"><g class="cls-6"><path class="cls-3" d="M96.16,148.65h8.27c1.14,0,2.07,2.06,2.07,4.61s-.93,4.61-2.07,4.61H96.16c-1.14,0-2.07-2.06-2.07-4.61s.93-4.61,2.07-4.61"/></g></g></g><g id="Rounded_Rectangle_9-2" data-name="Rounded Rectangle 9"><g class="cls-7"><g class="cls-7"><path class="cls-3" d="M190,147.63h8.27c1.14,0,2.07,2.06,2.07,4.61s-.93,4.61-2.07,4.61H190c-1.14,0-2.07-2.06-2.07-4.61s.93-4.61,2.07-4.61"/></g></g></g><path id="body-bg-flat-2" data-name="body-bg-flat" class="cls-2" d="M2.77,409.48s-10.3-90.31,78.44-100.39h38V291.6s26.71,11.47,53.76,1.28l.85,16.21h44.37s77.27,7.71,72.6,100.39Z"/><path id="Rounded_Rectangle_13_copy_3" data-name="Rounded Rectangle 13 copy 3" class="cls-3" d="M290,411.07H0l1.38-23.53c2.69-45.94,38.89-81,80.31-81h37.5v4.69h-35c-39.92,0-74.81,33.75-77.4,78l-1,16.32H289.28l-.53-16.32c-2.59-44.22-37.48-78-77.4-78H175.93v-4.69h37.68c41.42,0,77.62,35.06,80.31,81l1.38,23.53Z"/><path id="neck_copy_7" data-name="neck copy 7" class="cls-3" d="M122.17,289.63v26.32a24.75,24.75,0,0,0,49.49,0V290.17q2.15-.66,4.27-1.42v27.38a29.23,29.23,0,1,1-58.45,0V287.93Q119.8,288.85,122.17,289.63Z"/><path id="Rounded_Rectangle_2" data-name="Rounded Rectangle 2" class="cls-3" d="M223.49,363l-12.09,25.21a2.56,2.56,0,1,1-4.62-2.21l11.67-24.34-9.12-15.8a2.56,2.56,0,0,1,4.43-2.56l9.81,17A2.56,2.56,0,0,1,223.49,363Z"/><path id="Rounded_Rectangle_2_copy_3" data-name="Rounded Rectangle 2 copy 3" class="cls-3" d="M70.13,363l12.15,25.28a2.57,2.57,0,0,0,4.64-2.22L75.19,361.64l9.17-15.85a2.57,2.57,0,0,0-4.46-2.57l-9.87,17A2.56,2.56,0,0,0,70.13,363Z"/><path id="Rectangle_24" data-name="Rectangle 24" class="cls-3" d="M117.48,305.68h4.69V409.36h-4.69Z"/><path id="Rectangle_24_copy" data-name="Rectangle 24 copy" class="cls-3" d="M171.67,306.53h4.69V410.21h-4.69Z"/><path id="Shape_34" data-name="Shape 34" class="cls-3" d="M134.77,356.48l12-13,13,13-7,7,11,45h-34l12-45Z"/><path id="Rectangle_24_copy_4" data-name="Rectangle 24 copy 4" class="cls-3" d="M161.47,409.17,149.38,364l2.51-.75,1.67-1.77,12.79,47.74Zm-34.11-.53L140,361.73l.82.7,2.56,1.71.84.08-12,44.49Z"/><path id="Ellipse_6" data-name="Ellipse 6" class="cls-3" d="M175.92,369.27l-3.32,3.32-12.91-12.91a14.06,14.06,0,0,1-24.12-.49l-13.48,13.48-3.33-3.33L145.3,342.8l2.08-1.92,2.08,1.92Zm-37.74-12.69a10.44,10.44,0,0,0,18.64.23l-9.43-9.43Z"/></g></g></svg>